<svg xmlns="http://www.w3.org/2000/svg" viewBox="0 0 192.9 148.57"><defs><style>.cls-1{fill:#239aff;}</style></defs><title>Asset 6</title><g id="Layer_2" data-name="Layer 2"><g id="Layer_1-2" data-name="Layer 1"><path class="cls-1" d="M192.9,27.14V62.62H171.35C176.8,70.72,180,80,180,89.29c0,31.19-22.53,59.28-62.4,59.28H75.28c-39.87,0-62.4-28.09-62.4-59.28,0-9.29,3.22-18.57,8.66-26.67H0V27.14H70.57V0h52V27.14Zm-87.41,87.62c16.59,0,27.48-10.71,27.48-26.43,0-16-11.39-26.42-28-26.42H87.9c-16.59,0-28,10.47-28,26.42,0,15.72,10.9,26.43,27.49,26.43Z"/></g></g></svg>