<svg xmlns="http://www.w3.org/2000/svg" viewBox="0 0 560.03 248.26"><defs><style>.cls-1{fill:#239aff;}.cls-2{fill:#ffcc32;}</style></defs><title>Asset 5</title><g id="Layer_2" data-name="Layer 2"><g id="Layer_1-2" data-name="Layer 1"><path class="cls-1" d="M192.9,27.14V62.62H171.35C176.8,70.72,180,80,180,89.29c0,31.19-22.53,59.28-62.4,59.28H75.28c-39.87,0-62.4-28.09-62.4-59.28,0-9.29,3.22-18.57,8.66-26.67H0V27.14H70.57V0h52V27.14Zm-87.41,87.62c16.59,0,27.48-10.71,27.48-26.43,0-16-11.39-26.42-28-26.42H87.9c-16.59,0-28,10.47-28,26.42,0,15.72,10.9,26.43,27.49,26.43Z"/><path class="cls-2" d="M201.18,148.49V56.83H324.47V37.66H201.18V.3h172.6V92.7H252.49v19.18H377v36.61Z"/><path class="cls-1" d="M385.68,147.25V1.79H560V147.25ZM433,110.39h79.7V38.65H433Z"/><path class="cls-2" d="M560,196V166.64H1v30H559.43A4.3,4.3,0,0,1,560,196Z"/><path class="cls-2" d="M560,196.07l-19.54-22.3-59.49,52.12,19.6,22.37,58.85-51.55A3.9,3.9,0,0,1,560,196.07Z"/></g></g></svg>