<?xml version="1.0" encoding="utf-8"?>
<!-- Generator: Adobe Illustrator 24.0.1, SVG Export Plug-In . SVG Version: 6.00 Build 0)  -->
<svg version="1.1" id="Layer_1" xmlns="http://www.w3.org/2000/svg" xmlns:xlink="http://www.w3.org/1999/xlink" x="0px" y="0px"
	 viewBox="0 0 606 248.3" style="enable-background:new 0 0 606 248.3;" xml:space="preserve">
<style type="text/css">
	.st0{fill:#239AFF;}
	.st1{fill:#FFCC32;}
</style>
<title>Asset 5</title>
<path class="st0" d="M200.9,27.1v35.5h-21.5c5.4,8.1,8.6,17.4,8.6,26.7c0,31.2-22.5,59.3-62.4,59.3H83.2
	c-39.9,0-62.4-28.1-62.4-59.3c0-9.3,3.2-18.6,8.7-26.7H8V27.1h70.6V0h52v27.1H200.9z M113.5,114.8c16.6,0,27.5-10.7,27.5-26.4
	c0-16-11.4-26.4-28-26.4H95.9c-16.6,0-28,10.5-28,26.4c0,15.7,10.9,26.4,27.5,26.4H113.5z"/>
<path class="st1" d="M224.1,148.5V56.8h123.3V37.7H224.1V0.3h172.6v92.4H275.5v19.2H400v36.6L224.1,148.5z"/>
<path class="st0" d="M423.6,147.3V1.8H598v145.5H423.6z M471,110.4h79.7V38.7H471V110.4z"/>
<path class="st1" d="M593,196v-29.4H8v30h584.4C592.5,196.4,592.7,196.2,593,196z"/>
<path class="st1" d="M593,196.1l-20.4-22.3l-62.3,52.1l20.5,22.4l61.6-51.6C592.5,196.5,592.7,196.3,593,196.1z"/>
</svg>
